<svg width="48" height="48" viewBox="0 0 48 48" fill="none" xmlns="http://www.w3.org/2000/svg">
<path fill-rule="evenodd" clip-rule="evenodd" d="M26.9016 3.70005C26.9016 4.30005 26.7016 4.90005 26.3016 5.40005C27.9016 6.30005 28.9016 8.00005 28.9016 9.70005C28.9016 12.4 26.7016 14.6 24.0016 14.6C21.3016 14.6 19.1016 12.4 19.1016 9.70005C19.1016 7.90005 20.1016 6.30005 21.7016 5.40005C21.3016 4.90005 21.1016 4.30005 21.1016 3.70005C21.1016 2.10005 22.4016 0.800049 24.0016 0.800049C25.6016 0.800049 26.9016 2.10005 26.9016 3.70005ZM25.2016 3.70005C25.2016 3.00005 24.6016 2.50005 24.0016 2.50005C23.4016 2.50005 22.8016 3.10005 22.8016 3.70005C22.8016 4.30005 23.3016 4.80005 24.0016 4.80005C24.7016 4.80005 25.2016 4.30005 25.2016 3.70005ZM20.8016 9.70005C20.8016 11.5 22.2016 12.9 24.0016 12.9C25.8016 12.9 27.2016 11.5 27.2016 9.70005C27.2016 7.90005 25.8016 6.50005 24.0016 6.50005C22.2016 6.50005 20.8016 7.90005 20.8016 9.70005Z" fill="#57C081"/>
<path d="M35.6984 17.8C35.6984 18.3 35.2984 18.7 34.7984 18.7C34.2984 18.7 33.8984 18.3 33.8984 17.8C33.8984 17.3 34.2984 16.9 34.7984 16.9C35.2984 17 35.6984 17.4 35.6984 17.8Z" fill="#57C081"/>
<path d="M36.9 20.1C37.4 20.1 37.8 19.7001 37.8 19.2001C37.8 18.7001 37.4 18.3 36.9 18.3C36.4 18.3 36 18.7001 36 19.2001C36 19.7001 36.4 20.1 36.9 20.1Z" fill="#57C081"/>
<path d="M8.4 14.7C8.9 14.7 9.3 14.3 9.3 13.8C9.3 13.3 8.9 12.9 8.4 12.9C7.9 12.9 7.5 13.3 7.5 13.8C7.5 14.3 7.9 14.7 8.4 14.7Z" fill="#57C081"/>
<path fill-rule="evenodd" clip-rule="evenodd" d="M11.1008 10.2H5.70078C5.20078 10.2 4.80078 10.6 4.80078 11.1V16.5C4.80078 17 5.20078 17.4 5.70078 17.4H11.1008C11.6008 17.4 12.0008 17 12.0008 16.5V11.1C12.0008 10.6 11.6008 10.2 11.1008 10.2ZM10.2008 15.6H6.60078V12H10.2008V15.6Z" fill="#57C081"/>
<path fill-rule="evenodd" clip-rule="evenodd" d="M47.2008 26C47.2008 27.2 46.2008 28.2 45.0008 28.2V28.1H44.5008V35.8H45.0008C45.5008 35.8 45.9008 36.2 45.9008 36.7C45.9008 37.2 45.5008 37.6 45.0008 37.6H44.5008V46.3C44.5008 46.8 44.1008 47.2 43.6008 47.2H40.9008C40.5008 47.2 40.2008 47 40.1008 46.6L37.6008 37.6H27.6008V44.8L29.7008 45.5C30.1008 45.7 30.4008 46.2 30.2008 46.6C30.1008 47.1 29.6008 47.3 29.1008 47.2L26.4008 46.3C26.0008 46.2 25.8008 45.9 25.8008 45.5V37.7H22.2008V45.5C22.2008 45.8 22.0008 46.2 21.6008 46.3L18.9008 47.2C18.5008 47.3 17.9008 47.1 17.8008 46.6C17.6008 46.2 17.8008 45.7 18.3008 45.5L20.4008 44.8V37.6H10.4008L7.90078 46.6C7.80078 46.9 7.50078 47.2 7.10078 47.2H4.40078C3.90078 47.2 3.50078 46.8 3.50078 46.3V37.6H3.00078C2.50078 37.6 2.10078 37.2 2.10078 36.7C2.10078 36.2 2.50078 35.8 3.00078 35.8H3.50078V28.1H3.00078C1.80078 28.1 0.800781 27.1 0.800781 25.9C0.800781 24.7 1.80078 23.7 3.00078 23.7H7.50078V20.1H3.00078C2.50078 20.1 2.10078 19.7 2.10078 19.2V8.4C2.10078 7.9 2.50078 7.5 3.00078 7.5H13.8008C14.3008 7.5 14.7008 7.9 14.7008 8.4V19.3C14.7008 19.8 14.3008 20.2 13.8008 20.2H9.30078V23.8H16.4008V21.1C16.4008 19.4 17.6008 17.9 19.2008 17.6C19.5008 16.5 20.5008 15.7 21.7008 15.7H26.2008C27.7008 15.7 28.9008 16.9 28.9008 18.4V23.8H29.9008V23.3C29.9008 22.5 30.5008 21.6 31.3008 21.3V17.6C31.3008 15.1 33.4008 13 35.9008 13C38.4008 13 40.5008 15.1 40.5008 17.6V21.3C41.3008 21.6 41.8008 22.4 41.8008 23.3V23.8H45.0008C46.2008 23.8 47.2008 24.8 47.2008 26ZM35.9008 14.6C34.3008 14.6 33.0008 15.9 33.0008 17.5V21H38.8008V17.5C38.8008 15.9 37.5008 14.6 35.9008 14.6ZM32.2008 22.7C31.9008 22.7 31.7008 22.9 31.7008 23.2H31.8008V23.7H40.2008V23.2C40.2008 22.9 40.0008 22.7 39.7008 22.7H32.2008ZM24.0008 18.7L24.8008 17.4V17.3H23.2008L24.0008 18.7ZM21.3008 17.5C21.0008 17.7 20.8008 18 20.8008 18.3V23.7H23.1008V23.2C23.1008 22.7 23.5008 22.3 24.0008 22.3C24.5008 22.3 24.9008 22.7 24.9008 23.2V23.7H27.2008V18.3C27.2008 18 27.0008 17.7 26.7008 17.5L24.8008 21C24.6008 21.3 24.4008 21.5 24.0008 21.5C23.6008 21.5 23.4008 21.3 23.2008 21L21.3008 17.5ZM19.0008 19.4C18.5008 19.7 18.1008 20.3 18.1008 21V23.7H19.0008V19.4ZM3.90078 9.3V18.3H12.9008V9.3H3.90078ZM5.20078 37.6V45.5H6.40078L8.60078 37.6H5.20078ZM41.6008 45.5H42.8008V37.6H39.4008L41.6008 45.5ZM5.20078 35.8H42.9008V28.1H39.2008V34C39.2008 34.5 38.8008 34.9 38.3008 34.9C37.8008 34.9 37.4008 34.5 37.4008 34V28.1H10.7008V34C10.7008 34.5 10.3008 34.9 9.80078 34.9C9.30078 34.9 8.90078 34.5 8.90078 34V28.1H5.20078V35.8ZM2.50078 25.9C2.50078 26.2 2.70078 26.4 3.00078 26.4H45.0008C45.3008 26.4 45.5008 26.2 45.5008 25.9C45.5008 25.6 45.3008 25.4 45.0008 25.4H3.00078C2.70078 25.4 2.50078 25.6 2.50078 25.9Z" fill="#57C081"/>
</svg>
