<svg width="49" height="56" viewBox="0 0 49 56" fill="none" xmlns="http://www.w3.org/2000/svg">
<path fill-rule="evenodd" clip-rule="evenodd" d="M45.5004 48.9996H45.1616L39.9457 40.8853L47.4926 33.3384C47.7113 33.1196 47.8347 32.8238 47.8347 32.5149V14.1513C47.8347 13.842 47.7113 13.5454 47.4926 13.3267L34.5082 0.341469C34.2895 0.122719 33.9912 0 33.6825 0H15.3197C15.0104 0 14.7128 0.122719 14.494 0.341469L1.5097 13.3267C1.29095 13.5454 1.16812 13.842 1.16812 14.1513V32.5149C1.16812 32.8238 1.29095 33.1196 1.5097 33.3384L9.05657 40.8853L3.8408 48.9996H3.50043C1.57127 48.9996 0.000976562 50.5684 0.000976562 52.4996C0.000976562 54.4296 1.57127 55.9996 3.50043 55.9996H10.5004C12.4317 55.9996 14.0004 54.4296 14.0004 52.4996C14.0004 51.0873 13.1629 49.8703 11.9582 49.317L14.1215 45.9499L14.4941 46.323C14.7129 46.5429 15.0105 46.6651 15.3198 46.6651H33.6826C33.9913 46.6651 34.2896 46.5429 34.5084 46.323L34.8803 45.9499L37.0442 49.317C35.8389 49.8703 35.0004 51.0873 35.0004 52.4996C35.0004 54.4296 36.5703 55.9996 38.5004 55.9996H45.5004C47.4305 55.9996 48.9993 54.4296 48.9993 52.4996C48.9994 50.5684 47.4305 48.9996 45.5004 48.9996ZM39.6178 37.9151C39.6501 37.7254 39.6671 37.5322 39.6671 37.3338C39.6671 35.4027 38.0972 33.8341 36.1671 33.8341C35.9248 33.8341 35.6866 33.8576 35.4584 33.9058L31.2785 27.4034L44.6084 32.9246L39.6178 37.9151ZM45.5004 30.7682L29.1209 23.9843C29.1519 23.7709 29.167 23.5537 29.167 23.3334C29.167 23.112 29.1519 22.8948 29.1209 22.682L45.5004 15.8975V30.7682ZM34.0922 3.22656L44.6083 13.7417L28.2278 20.5272C27.964 20.1793 27.6551 19.8693 27.3067 19.6067L34.0922 3.22656ZM31.9379 2.3333L25.1513 18.7134C24.9395 18.6834 24.7224 18.6662 24.5004 18.6662C24.28 18.6662 24.0629 18.6833 23.8506 18.7134L17.0661 2.3333H31.9379ZM22.1677 23.3334C22.1677 22.0461 23.2153 20.9996 24.5004 20.9996C25.7872 20.9996 26.8348 22.0461 26.8348 23.3334C26.8348 24.6191 25.7872 25.6662 24.5004 25.6662C23.2153 25.6662 22.1677 24.6191 22.1677 23.3334ZM27.0975 33.8437C27.0107 33.8372 26.9239 33.8341 26.8348 33.8341C25.9395 33.8341 25.1208 34.1718 24.5004 34.7261C23.8818 34.1718 23.063 33.8341 22.1677 33.8341C22.0788 33.8341 21.9918 33.8372 21.9044 33.8437L24.5004 29.8043L27.0975 33.8437ZM14.9098 3.22656L21.6943 19.6067C21.3474 19.8693 21.0381 20.1793 20.7748 20.5272L4.39457 13.7417L14.9098 3.22656ZM3.50043 15.8975L19.881 22.682C19.852 22.8948 19.8348 23.112 19.8348 23.3334C19.8348 23.5538 19.852 23.7709 19.881 23.9843L3.50043 30.7682V15.8975ZM4.39457 32.9246L17.7244 27.4034L13.544 33.9058C13.3151 33.8576 13.0775 33.8341 12.8347 33.8341C10.9057 33.8341 9.33471 35.4027 9.33471 37.3338C9.33471 37.5322 9.35188 37.7254 9.38459 37.9151L4.39457 32.9246ZM9.0441 49.5357C8.81354 49.8949 8.79637 50.3497 9.00177 50.725C9.20488 51.099 9.59798 51.334 10.0252 51.334H10.5003C11.1448 51.334 11.6676 51.856 11.6676 52.4995C11.6676 53.1418 11.1448 53.6639 10.5003 53.6639H3.50032C2.85796 53.6639 2.33526 53.1418 2.33526 52.4995C2.33526 51.856 2.85796 51.334 3.50032 51.334H4.47813C4.8744 51.334 5.24376 51.1302 5.45879 50.7967L21.0786 26.4998C21.6089 27.0729 22.2818 27.5132 23.0389 27.7635L9.0441 49.5357ZM19.8348 43.1651C19.1904 43.1651 18.6677 42.6419 18.6677 41.9996C18.6677 41.3561 19.1904 40.8341 19.8348 40.8341C20.4772 40.8341 21.0004 41.3561 21.0004 41.9996C21.0004 42.6419 20.4772 43.1651 19.8348 43.1651ZM22.1677 38.4996C21.5248 38.4996 21.0004 37.9762 21.0004 37.3338C21.0004 36.6895 21.5248 36.1651 22.1677 36.1651C22.8116 36.1651 23.3349 36.6895 23.3349 37.3338C23.3348 37.9762 22.8116 38.4996 22.1677 38.4996ZM24.5004 43.1651C23.8576 43.1651 23.3349 42.6419 23.3349 41.9996C23.3349 41.3561 23.8576 40.8341 24.5004 40.8341C25.1444 40.8341 25.6671 41.3561 25.6671 41.9996C25.6671 42.6419 25.1444 43.1651 24.5004 43.1651ZM26.8348 38.4996C26.1904 38.4996 25.6671 37.9762 25.6671 37.3338C25.6671 36.6895 26.1904 36.1651 26.8348 36.1651C27.4772 36.1651 28.0004 36.6895 28.0004 37.3338C28.0004 37.9762 27.4772 38.4996 26.8348 38.4996ZM29.1671 43.1651C28.5248 43.1651 28.0004 42.6419 28.0004 41.9996C28.0004 41.3561 28.5248 40.8341 29.1671 40.8341C29.8117 40.8341 30.3349 41.3561 30.3349 41.9996C30.3349 42.6419 29.8117 43.1651 29.1671 43.1651ZM45.5004 53.6641H38.5004C37.857 53.6641 37.3348 53.142 37.3348 52.4997C37.3348 51.8562 37.857 51.3342 38.5004 51.3342H38.9765C39.4043 51.3342 39.7969 51.0992 40.0005 50.7252C40.2054 50.3498 40.1883 49.895 39.9576 49.5359L25.9631 27.7638C26.7201 27.5134 27.3935 27.0733 27.9253 26.5L43.5435 50.7968C43.7591 51.1303 44.128 51.3341 44.5247 51.3341H45.5005C46.1439 51.3341 46.6671 51.8561 46.6671 52.4996C46.6671 53.1419 46.1439 53.6641 45.5004 53.6641Z" fill="#9156FF"/>
</svg>
