<svg width="48" height="48" viewBox="0 0 48 48" fill="none" xmlns="http://www.w3.org/2000/svg">
<g clip-path="url(#clip0)">
<path fill-rule="evenodd" clip-rule="evenodd" d="M24.0964 15.2816L28.3087 18.7102C29.0923 19.3959 29.5821 20.3755 29.4842 21.3551C29.4842 23.3143 27.9168 24.8816 25.9577 24.8816H25.8597C25.5658 24.8816 25.174 24.7837 24.8801 24.6857V26.351H23.1168V24.6857C22.823 24.7837 22.4311 24.8816 22.1372 24.8816H22.0393C20.0801 24.8816 18.5128 23.3143 18.5128 21.3551C18.5128 20.3755 19.0026 19.3959 19.7862 18.7102L23.9985 15.1837L24.0964 15.2816ZM24.0964 22.0408L24.6842 22.6286C25.076 22.9224 25.4679 23.1184 25.9577 23.1184H26.0556C27.0352 23.1184 27.8189 22.3347 27.8189 21.3551C27.8189 20.7673 27.623 20.2776 27.2311 19.9837L24.0964 17.3388L20.9617 19.9837C20.5699 20.3755 20.374 20.8653 20.374 21.3551C20.374 22.3347 21.1577 23.1184 22.1372 23.1184H22.2352C22.725 23.1184 23.2148 22.9224 23.5087 22.6286L24.0964 22.0408Z" fill="#F5B579"/>
<path fill-rule="evenodd" clip-rule="evenodd" d="M13.7128 15.3795H13.6148C12.9291 15.3795 12.3413 15.5755 11.7536 15.8693C11.1658 15.4775 10.5781 15.3795 9.89235 15.3795H9.79439C7.8352 15.3795 6.26786 16.9469 6.26786 18.9061C6.26786 19.9836 6.75765 20.9632 7.54133 21.551L11.7536 24.9795H11.8515L16.0638 21.453C16.8474 20.7673 17.3372 19.7877 17.3372 18.8081C17.2393 16.9469 15.6719 15.3795 13.7128 15.3795ZM14.8883 20.2775L11.7536 22.8244L8.61888 20.1795C8.22704 19.8857 7.93316 19.3959 7.93316 18.8081C7.93316 17.8285 8.71684 17.0449 9.69643 17.0449H9.79439C10.2842 17.0449 10.676 17.2408 11.0679 17.5346L11.6556 18.1224L12.2434 17.5346C12.5372 17.2408 13.027 17.0449 13.5168 17.0449H13.7128C14.6923 17.0449 15.476 17.8285 15.476 18.8081C15.476 19.3959 15.2801 19.8857 14.8883 20.2775Z" fill="#F5B579"/>
<path fill-rule="evenodd" clip-rule="evenodd" d="M41.5347 20.0817L36.4408 25.1755L31.3469 20.0817L36.4408 15.0857L41.5347 20.0817ZM39.0857 20.1796L36.4408 17.5347L33.7959 20.1796L36.4408 22.8245L39.0857 20.1796Z" fill="#F5B579"/>
<path fill-rule="evenodd" clip-rule="evenodd" d="M45.9429 43.2L48.1959 32.8163L45.0612 30.6612V14.6939C45.0612 13.3224 43.9837 12.2449 42.6122 12.2449H40.3592C39.8694 5.38776 34.0898 0 27.1347 0H20.9633C14.1061 0 8.32653 5.38776 7.83673 12.3429H5.58367C4.21224 12.3429 3.13469 13.4204 3.13469 14.7918V30.7592L0 32.8163L2.25306 43.2C1.07755 43.3959 0.0979592 44.3755 0.0979592 45.551V48H48.098V45.551C48.098 44.3755 47.1184 43.298 45.9429 43.2ZM45.649 33.2082L42.6122 35.2653L39.5755 33.2082L42.6122 31.151L45.649 33.2082ZM45.9429 35.1673L44.1796 43.102H43.3959V36.7347L45.9429 35.1673ZM41.7306 36.7347V43.102H40.9469L39.1837 35.0694L41.7306 36.7347ZM37.6163 8.62041C37.6803 8.79099 37.7443 8.95693 37.8072 9.12026C38.0335 9.70724 38.2467 10.2604 38.4 10.8735L36.9306 9.40408L37.6163 8.62041ZM13.7143 9.30612L16.3592 6.66122L19.0041 9.30612L16.3592 11.951L13.7143 9.30612ZM10.7755 12.3429L12.5388 10.5796L14.302 12.3429H10.7755ZM22.0408 6.36735L20.2776 8.13061L18.5143 6.36735H22.0408ZM20.2776 10.5796L22.0408 12.3429H18.5143L20.2776 10.5796ZM21.4531 9.30612L24.098 6.66122L26.7429 9.30612L24.098 11.951L21.4531 9.30612ZM29.6816 6.36735L27.9184 8.13061L26.1551 6.36735H29.6816ZM27.9184 10.5796L29.6816 12.3429H26.1551L27.9184 10.5796ZM29.1918 9.30612L31.8367 6.66122L34.4816 9.30612L31.8367 11.951L29.1918 9.30612ZM35.6571 10.5796L37.4204 12.3429H33.8939L35.6571 10.5796ZM36.7347 6.9551L35.5592 8.13061L33.7959 6.36735H36.3429C36.5388 6.56327 36.6367 6.75918 36.7347 6.9551ZM20.9633 1.76327H27.1347C29.9755 1.76327 32.6204 2.74286 34.6776 4.70204H13.4204C15.5755 2.74286 18.2204 1.76327 20.9633 1.76327ZM11.8531 6.36735H14.302L12.5388 8.13061L11.3633 6.9551C11.4612 6.85714 11.5347 6.75918 11.6082 6.66122C11.6816 6.56327 11.7551 6.46531 11.8531 6.36735ZM10.5796 8.62041L11.3633 9.40408L9.79592 10.8735C9.99184 10.0898 10.1878 9.30612 10.5796 8.62041ZM4.89796 14.6939C4.89796 14.302 5.19184 14.0082 5.58367 14.0082H42.6122C43.0041 14.0082 43.298 14.302 43.298 14.6939V29.4857L42.6122 28.9959L37.0286 32.7184L38.5959 39.9673H31.9347V27.7224H16.2612V40.0653H9.6L11.1673 32.8163L5.58367 29.0939L4.89796 29.5837V14.6939ZM23.2163 35.6571V40.0653H18.0245V29.4857H23.2163V33.8939H21.649V35.6571H23.2163ZM38.8898 41.8286L39.1837 43.102H9.01224L9.30612 41.7306H38.8898V41.8286ZM24.9796 33.8939V29.4857H30.1714V40.0653H24.9796V35.6571H26.449V33.8939H24.9796ZM5.58367 31.151L8.62041 33.2082L5.58367 35.2653L2.54694 33.2082L5.58367 31.151ZM8.91429 35.1673L7.24898 43.102H6.46531V36.7347L8.91429 35.1673ZM4.70204 36.7347V43.102H4.01633L2.25306 35.0694L4.70204 36.7347ZM1.86122 46.2367V45.551C1.86122 45.1592 2.1551 44.8653 2.54694 44.8653H8.71837C9.1102 44.8653 9.40408 45.1592 9.40408 45.551V46.2367H1.86122ZM37.1265 45.551V46.2367H11.0694V45.551C11.0694 45.3551 11.0694 45.1592 10.9714 44.8653H37.2245C37.1265 45.1592 37.1265 45.3551 37.1265 45.551ZM38.7918 45.551C38.7918 45.1591 39.0857 44.8653 39.4776 44.8653H45.649C46.0408 44.8653 46.3347 45.1591 46.3347 45.551V46.2367H38.7918V45.551Z" fill="#F5B579"/>
</g>
<defs>
<clipPath id="clip0">
<rect width="48" height="48" fill="white"/>
</clipPath>
</defs>
</svg>
