<svg width="57" height="39" viewBox="0 0 57 39" fill="none" xmlns="http://www.w3.org/2000/svg">
<path fill-rule="evenodd" clip-rule="evenodd" d="M37.0524 0C26.3952 0 17.7557 8.63955 17.7557 19.2967C17.7557 29.9539 26.3952 38.5935 37.0524 38.5935C47.7096 38.5935 56.3491 29.9535 56.3491 19.2963C56.3372 8.64438 47.7043 0.0119348 37.0524 0ZM37.0517 4.33404L32.6824 2.60378C35.5378 1.85319 38.5392 1.85079 41.3958 2.59658L37.0517 4.33404ZM38.0719 12.5046V6.12134L44.2898 3.63438C47.1044 4.94198 49.5169 6.97984 51.2768 9.53623L50.0554 14.7281L43.5589 16.8934L38.0719 12.5046ZM22.8281 9.53626C24.5819 6.98933 26.9838 4.95689 29.786 3.6487L36.0329 6.1244V12.5046L30.546 16.8934L24.0494 14.7281L22.8281 9.53626ZM52.0269 15.2539L52.7571 12.1478C53.5894 13.9706 54.0957 15.9253 54.2529 17.9228L52.0269 15.2539ZM22.0779 15.2564L19.8519 17.9252C20.0092 15.9279 20.5154 13.9731 21.3477 12.1503L22.0779 15.2564ZM33.4368 24.5797L31.899 18.4224L37.0524 14.3L42.207 18.4242L40.6681 24.5797H33.4368ZM54.2149 21.0682C53.9394 23.7557 53.0326 26.3401 51.5686 28.6105L45.7196 29.5341L42.5696 25.3728L44.2063 18.8282L50.5784 16.7046L54.2149 21.0682ZM19.8905 21.0663L23.524 16.7028L29.896 18.8263L31.5331 25.3757L28.4117 29.5382L22.5363 28.6105C21.0722 26.3395 20.1657 23.7544 19.8905 21.0663ZM30.0987 30.6879L33.1504 26.6187H40.9555L44.0617 30.7218L40.9952 36.096C38.5769 36.6668 36.0636 36.7069 33.6282 36.2137L30.0987 30.6879ZM43.0003 35.9095C43.0004 35.9094 43.0001 35.9095 43.0003 35.9095ZM49.7603 30.9599C48.1179 32.7489 46.1174 34.1726 43.8895 35.1385L45.9322 31.5638L49.7603 30.9599ZM30.6322 35.3127C28.2395 34.3486 26.0918 32.8617 24.347 30.9608L28.2472 31.5769L30.6322 35.3127Z" fill="#FF9330"/>
<path d="M28.2066 35.9798H5.91028C4.68178 35.9798 3.68588 34.9839 3.68588 33.7554V31.531L2.57402 31.5304C1.34551 31.5304 0.349609 30.5345 0.349609 29.306V27.0816C0.349609 25.8531 1.34551 24.8572 2.57402 24.8572H3.68588V22.6332H2.57402C1.34551 22.6332 0.349609 21.6373 0.349609 20.4088V18.1844C0.349609 16.9559 1.34551 15.9599 2.57402 15.9599H3.68588V13.7355L2.57402 13.7354C1.34551 13.7354 0.349609 12.7395 0.349609 11.511V9.28663C0.349609 8.05812 1.34551 7.06222 2.57402 7.06222H3.68588V4.83776C3.68588 3.60926 4.68178 2.61335 5.91028 2.61335H28.2071C27.2159 3.27239 26.2867 4.0174 25.4303 4.83776H5.91028V7.06217H23.4294C22.8839 7.76773 22.3845 8.51072 21.9356 9.28663H2.57402V11.511H20.8275C20.5229 12.2319 20.2593 12.9744 20.0397 13.7355H5.91028V15.9599H19.534C19.4117 16.6888 19.3288 17.431 19.2875 18.1844H2.57402V20.4088H5.8646C5.87979 20.4085 5.89502 20.4083 5.91028 20.4083H19.2875C19.3287 21.1618 19.4116 21.9042 19.5339 22.6332H5.91028V24.8571H20.0394C20.259 25.6182 20.5226 26.3607 20.8271 27.0816H2.57402V29.306H21.9351C22.384 30.0821 22.8835 30.8252 23.4291 31.531H5.91028V33.7554H25.4299C26.2863 34.5757 27.2154 35.3207 28.2066 35.9798Z" fill="#FF9330"/>
</svg>
