<svg width="48" height="48" viewBox="0 0 48 48" fill="none" xmlns="http://www.w3.org/2000/svg">
<path d="M24.7992 38.9V43.5C24.7992 44 24.3992 44.3 23.9992 44.3H19.4992C18.9992 44.3 18.6992 43.9 18.6992 43.5V40.4H20.3992V42.7H23.1992V38.9H24.7992Z" fill="#FB7F7F"/>
<path d="M8.99922 15.7H4.49922C3.99922 15.7 3.69922 16.1 3.69922 16.5V21C3.69922 21.5 4.09922 21.8 4.49922 21.8H8.99922C9.49922 21.8 9.79922 21.4 9.79922 21V16.5C9.79922 16 9.49922 15.7 8.99922 15.7ZM8.19922 20.2H5.29922V17.4H8.09922V20.2H8.19922Z" fill="#FB7F7F"/>
<path d="M16.4992 15.7H11.9992C11.4992 15.7 11.1992 16.1 11.1992 16.5V21C11.1992 21.5 11.5992 21.8 11.9992 21.8H16.4992C16.9992 21.8 17.2992 21.4 17.2992 21V16.5C17.2992 16 16.9992 15.7 16.4992 15.7ZM15.6992 20.2H12.8992V17.4H15.6992V20.2Z" fill="#FB7F7F"/>
<path d="M23.9992 15.7H19.4992C18.9992 15.7 18.6992 16.1 18.6992 16.5V21C18.6992 21.5 19.0992 21.8 19.4992 21.8H23.9992C24.4992 21.8 24.7992 21.4 24.7992 21V16.5C24.7992 16 24.4992 15.7 23.9992 15.7ZM23.1992 20.2H20.3992V17.4H23.1992V20.2Z" fill="#FB7F7F"/>
<path d="M31.4992 21.9C31.9992 21.9 32.2992 21.5 32.2992 21V16.5C32.2992 16 31.8992 15.6 31.4992 15.6H26.9992C26.4992 15.6 26.0992 16 26.0992 16.5V21C26.0992 21.5 26.4992 21.9 26.9992 21.9H31.4992ZM30.6992 17.4V20.2H27.8992V17.4H30.6992ZM31.4992 21.7H26.9992C26.5992 21.7 26.1992 21.4 26.1992 20.9V16.4V21C26.1992 21.4 26.4992 21.8 26.9992 21.8L31.4992 21.7Z" fill="#FB7F7F"/>
<path d="M23.9992 23.2H19.4992C18.9992 23.2 18.6992 23.6 18.6992 24V28.5C18.6992 29 19.0992 29.3 19.4992 29.3H23.9992C24.4992 29.3 24.7992 28.9 24.7992 28.5V24C24.7992 23.5 24.4992 23.2 23.9992 23.2ZM23.1992 27.7H20.3992V24.9H23.1992V27.7Z" fill="#FB7F7F"/>
<path d="M16.4992 23.2H11.9992C11.4992 23.2 11.1992 23.6 11.1992 24V28.5C11.1992 29 11.5992 29.3 11.9992 29.3H16.4992C16.9992 29.3 17.2992 28.9 17.2992 28.5V24C17.2992 23.5 16.9992 23.2 16.4992 23.2ZM15.6992 27.7H12.8992V24.9H15.6992V27.7Z" fill="#FB7F7F"/>
<path d="M8.99922 30.7H4.49922C3.99922 30.7 3.69922 31.1 3.69922 31.5V36C3.69922 36.5 4.09922 36.8 4.49922 36.8H8.99922C9.49922 36.8 9.79922 36.4 9.79922 36V31.5C9.79922 31 9.49922 30.7 8.99922 30.7ZM8.19922 35.2H5.29922V32.4H8.09922V35.2H8.19922Z" fill="#FB7F7F"/>
<path d="M16.4992 30.7H11.9992C11.4992 30.7 11.1992 31.1 11.1992 31.5V36C11.1992 36.5 11.5992 36.8 11.9992 36.8H16.4992C16.9992 36.8 17.2992 36.4 17.2992 36V31.5C17.2992 31 16.9992 30.7 16.4992 30.7ZM15.6992 35.2H12.8992V32.4H15.6992V35.2Z" fill="#FB7F7F"/>
<path d="M38.9992 30.7H34.4992C33.9992 30.7 33.6992 31.1 33.6992 31.5V36C33.6992 36.5 34.0992 36.8 34.4992 36.8H38.9992C39.4992 36.8 39.7992 36.4 39.7992 36V31.5C39.7992 31 39.4992 30.7 38.9992 30.7ZM38.1992 35.2H35.3992V32.4H38.1992V35.2Z" fill="#FB7F7F"/>
<path d="M8.99922 38.2H4.49922C3.99922 38.2 3.69922 38.6 3.69922 39V43.5C3.69922 44 4.09922 44.3 4.49922 44.3H8.99922C9.49922 44.3 9.79922 43.9 9.79922 43.5V39C9.79922 38.5 9.49922 38.2 8.99922 38.2ZM8.19922 42.7H5.29922V39.9H8.09922V42.7H8.19922Z" fill="#FB7F7F"/>
<path d="M16.4992 38.2H11.9992C11.4992 38.2 11.1992 38.6 11.1992 39V43.5C11.1992 44 11.5992 44.3 11.9992 44.3H16.4992C16.9992 44.3 17.2992 43.9 17.2992 43.5V39C17.2992 38.5 16.9992 38.2 16.4992 38.2ZM15.6992 42.7H12.8992V39.9H15.6992V42.7Z" fill="#FB7F7F"/>
<path d="M31.4992 38.2H26.9992C26.4992 38.2 26.1992 38.6 26.1992 39V43.5C26.1992 44 26.5992 44.3 26.9992 44.3H31.4992C31.9992 44.3 32.2992 43.9 32.2992 43.5V39C32.2992 38.5 31.9992 38.2 31.4992 38.2ZM30.6992 42.7H27.8992V39.9H30.6992V42.7Z" fill="#FB7F7F"/>
<path d="M38.9992 38.2H34.4992C33.9992 38.2 33.6992 38.6 33.6992 39V43.5C33.6992 44 34.0992 44.3 34.4992 44.3H38.9992C39.4992 44.3 39.7992 43.9 39.7992 43.5V39C39.7992 38.5 39.4992 38.2 38.9992 38.2ZM38.1992 42.7H35.3992V39.9H38.1992V42.7Z" fill="#FB7F7F"/>
<path d="M26.2992 3.69998V10.5C26.2992 10.9 26.0992 11.2 25.6992 11.3C25.5992 11.3 25.4992 11.3 25.4992 11.3C25.1992 11.3 24.8992 11.2 24.7992 10.9L22.5992 7.39998V11.3H20.8992V4.49998C20.8992 4.09998 21.0992 3.79998 21.4992 3.69998C21.8992 3.59998 22.2992 3.69998 22.3992 4.09998L24.5992 7.59998V3.69998H26.2992Z" fill="#FB7F7F"/>
<path d="M11.2992 6.79998C11.3992 6.69998 11.3992 6.79998 11.2992 6.79998ZM11.1992 8.19998C11.2992 8.19998 11.3992 8.19998 11.3992 8.19998C11.3992 8.29998 11.3992 8.19998 11.1992 8.19998ZM11.1992 8.19998C11.2992 8.19998 11.3992 8.19998 11.3992 8.19998C11.3992 8.29998 11.3992 8.19998 11.1992 8.19998ZM11.3992 6.69998C11.3992 6.69998 11.2992 6.69998 11.1992 6.69998H11.3992Z" fill="#FB7F7F"/>
<path d="M14.2992 5.19998C14.2992 6.09998 13.8992 6.89998 13.2992 7.39998C13.8992 7.99998 14.2992 8.79998 14.2992 9.59998V11.2H12.5992V9.79998C12.5992 9.09998 11.9992 8.49998 11.2992 8.39998V11.4H9.69922V3.69998H11.3992V6.69998C12.0992 6.59998 12.6992 5.99998 12.6992 5.29998V3.69998H14.3992V5.19998H14.2992Z" fill="#FB7F7F"/>
<path d="M17.2992 5.29998V6.59998H19.4992V8.29998H17.2992V9.59998H19.4992V11.3H16.3992C15.8992 11.3 15.5992 10.9 15.5992 10.5V4.49998C15.5992 3.99998 15.9992 3.69998 16.3992 3.69998H19.4992V5.39998H17.2992V5.29998Z" fill="#FB7F7F"/>
<path d="M30.7992 3.69998C29.0992 3.69998 27.6992 5.09998 27.6992 6.79998V8.29998C27.6992 9.99998 29.0992 11.4 30.7992 11.4C32.4992 11.4 33.8992 9.99998 33.8992 8.29998V6.79998C33.7992 4.99998 32.4992 3.69998 30.7992 3.69998ZM32.1992 8.19998C32.1992 8.99998 31.5992 9.59998 30.7992 9.59998C29.9992 9.59998 29.2992 8.99998 29.2992 8.19998V6.79998C29.2992 5.99998 29.8992 5.39998 30.6992 5.39998C31.4992 5.39998 32.0992 5.99998 32.0992 6.79998V8.19998H32.1992Z" fill="#FB7F7F"/>
<path d="M33.7992 28.9C33.8992 28.9 33.8992 28.9 33.7992 28.9C33.7992 28.8 33.8992 28.9 33.7992 28.9C33.7992 28.8 33.7992 28.8 33.7992 28.9ZM26.2992 36.4C26.3992 36.4 26.3992 36.4 26.2992 36.4C26.2992 36.3 26.3992 36.4 26.2992 36.4C26.2992 36.3 26.2992 36.3 26.2992 36.4ZM33.7992 28.9C33.8992 28.9 33.8992 28.9 33.7992 28.9C33.7992 28.8 33.8992 28.9 33.7992 28.9C33.7992 28.8 33.7992 28.8 33.7992 28.9ZM26.2992 36.4C26.3992 36.4 26.3992 36.4 26.2992 36.4C26.2992 36.3 26.3992 36.4 26.2992 36.4C26.2992 36.3 26.2992 36.3 26.2992 36.4Z" fill="#FB7F7F"/>
<path d="M47.0992 14.4L44.0992 11.4C43.7992 11.1 43.1992 11.1 42.8992 11.4H42.7992V1.39998C42.7992 0.899976 42.3992 0.599976 41.9992 0.599976H1.49922C0.999219 0.699976 0.699219 0.999976 0.699219 1.49998V46.5C0.699219 47 1.09922 47.3 1.49922 47.3H41.9992C42.4992 47.3 42.7992 46.9 42.7992 46.5V19.8L46.9992 15.6C47.3992 15.3 47.3992 14.7 47.0992 14.4ZM2.29922 2.29998H41.0992V12.6H2.29922V2.29998ZM41.1992 45.7H2.29922V14.3H39.9992L38.6992 15.6H34.4992C33.9992 15.6 33.6992 16 33.6992 16.4V20.6L31.1992 23.1H26.9992C26.4992 23.1 26.1992 23.5 26.1992 23.9V28.1L23.6992 30.6H19.4992C18.9992 30.6 18.6992 31 18.6992 31.4V36C18.6992 36.5 19.0992 36.8 19.4992 36.8H19.5992L18.6992 38.6C18.4992 38.9 18.5992 39.3 18.8992 39.6C19.0992 39.8 19.2992 39.8 19.4992 39.8C19.5992 39.8 19.7992 39.8 19.8992 39.7L25.8992 36.7C25.9992 36.7 26.0992 36.6 26.0992 36.5L26.2992 36.3C26.3992 36.5 26.6992 36.7 26.9992 36.7H31.4992C31.9992 36.7 32.2992 36.3 32.2992 35.9V31.4C32.2992 31.1 32.0992 30.8 31.8992 30.7L33.7992 28.9C33.8992 29.1 34.1992 29.3 34.4992 29.3H38.9992C39.4992 29.3 39.7992 28.9 39.7992 28.5V24C39.7992 23.7 39.5992 23.4 39.3992 23.3L41.0992 21.6V45.7H41.1992ZM36.9992 17.3L35.2992 19V17.4H36.9992V17.3ZM29.4992 24.8L27.8992 26.4V24.8H29.4992ZM21.9992 32.3C21.8992 32.4 21.7992 32.5 21.7992 32.6L20.4992 35.1H20.3992V32.3H21.9992ZM26.2992 36.3C26.2992 36.4 26.3992 36.4 26.3992 36.5C26.3992 36.4 26.3992 36.4 26.2992 36.3ZM27.7992 35.2V34.9L30.2992 32.4H30.5992V35.2H27.7992ZM33.7992 28.8C33.7992 28.9 33.8992 28.9 33.8992 29C33.8992 28.9 33.8992 28.9 33.7992 28.8ZM35.2992 27.7V27.4L37.7992 24.9H38.0992V27.7H35.2992ZM24.9992 35.3L21.3992 37.1L23.1992 33.5L43.4992 13.2L45.2992 15L24.9992 35.3Z" fill="#FB7F7F"/>
<path d="M8.99922 23.2H4.49922C3.99922 23.2 3.69922 23.6 3.69922 24V28.5C3.69922 29 4.09922 29.3 4.49922 29.3H8.99922C9.49922 29.3 9.79922 28.9 9.79922 28.5V24C9.79922 23.5 9.49922 23.2 8.99922 23.2ZM8.19922 27.7H5.29922V24.9H8.09922V27.7H8.19922Z" fill="#FB7F7F"/>
</svg>
